<mxfile host="app.diagrams.net" agent="Mozilla/5.0 (Macintosh; Intel Mac OS X 10.15; rv:132.0) Gecko/20100101 Firefox/132.0" version="24.8.6">
  <diagram name="Page-1" id="kgTer5c1k9g4bqriALDh">
    <mxGraphModel dx="2190" dy="1447" grid="1" gridSize="10" guides="1" tooltips="1" connect="1" arrows="1" fold="1" page="1" pageScale="1" pageWidth="3300" pageHeight="4681" math="0" shadow="0">
      <root>
        <mxCell id="0" />
        <mxCell id="1" parent="0" />
        <mxCell id="7HG6QUX_BdrF7CLEFW-o-1" style="edgeStyle=orthogonalEdgeStyle;rounded=0;orthogonalLoop=1;jettySize=auto;html=1;exitX=1;exitY=0.5;exitDx=0;exitDy=0;" edge="1" parent="1" source="EtgaM84JRcqlryoIpieD-5" target="EtgaM84JRcqlryoIpieD-14">
          <mxGeometry relative="1" as="geometry" />
        </mxCell>
        <mxCell id="7HG6QUX_BdrF7CLEFW-o-18" style="edgeStyle=orthogonalEdgeStyle;rounded=0;orthogonalLoop=1;jettySize=auto;html=1;exitX=0.5;exitY=1;exitDx=0;exitDy=0;entryX=0.5;entryY=0;entryDx=0;entryDy=0;" edge="1" parent="1" source="EtgaM84JRcqlryoIpieD-5" target="EtgaM84JRcqlryoIpieD-8">
          <mxGeometry relative="1" as="geometry">
            <Array as="points">
              <mxPoint x="1310" y="1210" />
              <mxPoint x="1310" y="1255" />
              <mxPoint x="1250" y="1255" />
            </Array>
          </mxGeometry>
        </mxCell>
        <mxCell id="7HG6QUX_BdrF7CLEFW-o-19" style="edgeStyle=orthogonalEdgeStyle;rounded=0;orthogonalLoop=1;jettySize=auto;html=1;exitX=0.5;exitY=1;exitDx=0;exitDy=0;entryX=0.5;entryY=0;entryDx=0;entryDy=0;" edge="1" parent="1" source="EtgaM84JRcqlryoIpieD-5" target="EtgaM84JRcqlryoIpieD-11">
          <mxGeometry relative="1" as="geometry">
            <Array as="points">
              <mxPoint x="1330" y="1210" />
              <mxPoint x="1330" y="1255" />
              <mxPoint x="1460" y="1255" />
            </Array>
          </mxGeometry>
        </mxCell>
        <mxCell id="EtgaM84JRcqlryoIpieD-5" value="&lt;div&gt;organismState&lt;/div&gt;" style="whiteSpace=wrap;html=1;align=center;" parent="1" vertex="1">
          <mxGeometry x="1270" y="1170" width="100" height="40" as="geometry" />
        </mxCell>
        <mxCell id="EtgaM84JRcqlryoIpieD-6" value="mutant_type" style="whiteSpace=wrap;html=1;align=center;" parent="1" vertex="1">
          <mxGeometry x="1410" y="1500" width="100" height="40" as="geometry" />
        </mxCell>
        <mxCell id="EtgaM84JRcqlryoIpieD-7" value="observable" style="whiteSpace=wrap;html=1;align=center;" parent="1" vertex="1">
          <mxGeometry x="1260" y="1500" width="100" height="40" as="geometry" />
        </mxCell>
        <mxCell id="EtgaM84JRcqlryoIpieD-10" style="edgeStyle=orthogonalEdgeStyle;rounded=0;orthogonalLoop=1;jettySize=auto;html=1;exitX=0.5;exitY=1;exitDx=0;exitDy=0;entryX=0.5;entryY=0;entryDx=0;entryDy=0;" parent="1" source="EtgaM84JRcqlryoIpieD-8" target="EtgaM84JRcqlryoIpieD-7" edge="1">
          <mxGeometry relative="1" as="geometry" />
        </mxCell>
        <mxCell id="EtgaM84JRcqlryoIpieD-8" value="stateHasObservable" style="shape=rhombus;perimeter=rhombusPerimeter;whiteSpace=wrap;html=1;align=center;" parent="1" vertex="1">
          <mxGeometry x="1170" y="1300" width="160" height="60" as="geometry" />
        </mxCell>
        <mxCell id="EtgaM84JRcqlryoIpieD-12" style="edgeStyle=orthogonalEdgeStyle;rounded=0;orthogonalLoop=1;jettySize=auto;html=1;entryX=0.5;entryY=0;entryDx=0;entryDy=0;" parent="1" source="EtgaM84JRcqlryoIpieD-11" target="EtgaM84JRcqlryoIpieD-6" edge="1">
          <mxGeometry relative="1" as="geometry" />
        </mxCell>
        <mxCell id="EtgaM84JRcqlryoIpieD-11" value="stateHasMutation" style="shape=rhombus;perimeter=rhombusPerimeter;whiteSpace=wrap;html=1;align=center;" parent="1" vertex="1">
          <mxGeometry x="1400" y="1300" width="120" height="60" as="geometry" />
        </mxCell>
        <mxCell id="7HG6QUX_BdrF7CLEFW-o-2" style="edgeStyle=orthogonalEdgeStyle;rounded=0;orthogonalLoop=1;jettySize=auto;html=1;exitX=0.5;exitY=0;exitDx=0;exitDy=0;entryX=0.5;entryY=0;entryDx=0;entryDy=0;" edge="1" parent="1" source="EtgaM84JRcqlryoIpieD-14" target="EtgaM84JRcqlryoIpieD-5">
          <mxGeometry relative="1" as="geometry" />
        </mxCell>
        <mxCell id="EtgaM84JRcqlryoIpieD-14" value="implies" style="shape=rhombus;perimeter=rhombusPerimeter;whiteSpace=wrap;html=1;align=center;" parent="1" vertex="1">
          <mxGeometry x="1490" y="1160" width="120" height="60" as="geometry" />
        </mxCell>
        <mxCell id="EtgaM84JRcqlryoIpieD-25" style="edgeStyle=orthogonalEdgeStyle;rounded=0;orthogonalLoop=1;jettySize=auto;html=1;entryX=0.5;entryY=0;entryDx=0;entryDy=0;" parent="1" source="EtgaM84JRcqlryoIpieD-15" target="EtgaM84JRcqlryoIpieD-24" edge="1">
          <mxGeometry relative="1" as="geometry" />
        </mxCell>
        <mxCell id="EtgaM84JRcqlryoIpieD-15" value="accumulationOfChemical" style="shape=rhombus;perimeter=rhombusPerimeter;whiteSpace=wrap;html=1;align=center;" parent="1" vertex="1">
          <mxGeometry x="1630" y="1770" width="180" height="60" as="geometry" />
        </mxCell>
        <mxCell id="EtgaM84JRcqlryoIpieD-23" style="edgeStyle=orthogonalEdgeStyle;rounded=0;orthogonalLoop=1;jettySize=auto;html=1;" parent="1" source="EtgaM84JRcqlryoIpieD-17" target="EtgaM84JRcqlryoIpieD-15" edge="1">
          <mxGeometry relative="1" as="geometry" />
        </mxCell>
        <mxCell id="7HG6QUX_BdrF7CLEFW-o-25" style="edgeStyle=orthogonalEdgeStyle;rounded=0;orthogonalLoop=1;jettySize=auto;html=1;entryX=0;entryY=0.5;entryDx=0;entryDy=0;dashed=1;" edge="1" parent="1" source="EtgaM84JRcqlryoIpieD-17" target="EtgaM84JRcqlryoIpieD-19">
          <mxGeometry relative="1" as="geometry" />
        </mxCell>
        <mxCell id="EtgaM84JRcqlryoIpieD-17" value="chemical compound accumulation" style="whiteSpace=wrap;html=1;align=center;" parent="1" vertex="1">
          <mxGeometry x="1370" y="1720" width="130" height="40" as="geometry" />
        </mxCell>
        <mxCell id="EtgaM84JRcqlryoIpieD-22" style="edgeStyle=orthogonalEdgeStyle;rounded=0;orthogonalLoop=1;jettySize=auto;html=1;entryX=0.5;entryY=1;entryDx=0;entryDy=0;" parent="1" source="EtgaM84JRcqlryoIpieD-19" target="EtgaM84JRcqlryoIpieD-7" edge="1">
          <mxGeometry relative="1" as="geometry" />
        </mxCell>
        <mxCell id="EtgaM84JRcqlryoIpieD-19" value="ISA" style="triangle;whiteSpace=wrap;html=1;rotation=-90;horizontal=1;flipV=1;textDirection=vertical-lr;verticalAlign=middle;align=left;spacingLeft=14;" parent="1" vertex="1">
          <mxGeometry x="1280" y="1572" width="60" height="80" as="geometry" />
        </mxCell>
        <mxCell id="EtgaM84JRcqlryoIpieD-24" value="&lt;div&gt;chemical entity&lt;/div&gt;" style="whiteSpace=wrap;html=1;align=center;" parent="1" vertex="1">
          <mxGeometry x="1700" y="1940" width="100" height="40" as="geometry" />
        </mxCell>
        <mxCell id="EtgaM84JRcqlryoIpieD-27" value="" style="rounded=0;whiteSpace=wrap;html=1;fillColor=none;dashed=1;" parent="1" vertex="1">
          <mxGeometry x="1610" y="1900" width="340" height="150" as="geometry" />
        </mxCell>
        <mxCell id="EtgaM84JRcqlryoIpieD-29" value="ChEBI" style="text;html=1;align=left;verticalAlign=top;whiteSpace=wrap;rounded=0;labelPosition=center;verticalLabelPosition=middle;spacingLeft=4;" parent="1" vertex="1">
          <mxGeometry x="1610" y="1900" width="60" height="30" as="geometry" />
        </mxCell>
        <mxCell id="EtgaM84JRcqlryoIpieD-30" value="Gene" style="whiteSpace=wrap;html=1;align=center;" parent="1" vertex="1">
          <mxGeometry x="1840" y="1470" width="100" height="40" as="geometry" />
        </mxCell>
        <mxCell id="EtgaM84JRcqlryoIpieD-32" value="" style="rounded=0;whiteSpace=wrap;html=1;fillColor=none;dashed=1;" parent="1" vertex="1">
          <mxGeometry x="1670" y="1450" width="340" height="150" as="geometry" />
        </mxCell>
        <mxCell id="EtgaM84JRcqlryoIpieD-33" value="NCIT" style="text;html=1;align=left;verticalAlign=top;whiteSpace=wrap;rounded=0;labelPosition=center;verticalLabelPosition=middle;spacingLeft=4;" parent="1" vertex="1">
          <mxGeometry x="1670" y="1450" width="60" height="30" as="geometry" />
        </mxCell>
        <mxCell id="7HG6QUX_BdrF7CLEFW-o-4" value="decreasedComparedTo" style="shape=rhombus;perimeter=rhombusPerimeter;whiteSpace=wrap;html=1;align=center;" vertex="1" parent="1">
          <mxGeometry x="736" y="1582" width="200" height="60" as="geometry" />
        </mxCell>
        <mxCell id="7HG6QUX_BdrF7CLEFW-o-5" value="notDiffersFrom" style="shape=rhombus;perimeter=rhombusPerimeter;whiteSpace=wrap;html=1;align=center;" vertex="1" parent="1">
          <mxGeometry x="680" y="1150" width="200" height="60" as="geometry" />
        </mxCell>
        <mxCell id="7HG6QUX_BdrF7CLEFW-o-6" value="arrestedComparedTo" style="shape=rhombus;perimeter=rhombusPerimeter;whiteSpace=wrap;html=1;align=center;" vertex="1" parent="1">
          <mxGeometry x="736" y="2112" width="200" height="60" as="geometry" />
        </mxCell>
        <mxCell id="7HG6QUX_BdrF7CLEFW-o-7" value="delayedComparedTo" style="shape=rhombus;perimeter=rhombusPerimeter;whiteSpace=wrap;html=1;align=center;" vertex="1" parent="1">
          <mxGeometry x="736" y="2006" width="200" height="60" as="geometry" />
        </mxCell>
        <mxCell id="7HG6QUX_BdrF7CLEFW-o-8" value="prematureComparedTo" style="shape=rhombus;perimeter=rhombusPerimeter;whiteSpace=wrap;html=1;align=center;" vertex="1" parent="1">
          <mxGeometry x="736" y="1900" width="200" height="60" as="geometry" />
        </mxCell>
        <mxCell id="7HG6QUX_BdrF7CLEFW-o-9" value="decreasedRateComparedTo" style="shape=rhombus;perimeter=rhombusPerimeter;whiteSpace=wrap;html=1;align=center;" vertex="1" parent="1">
          <mxGeometry x="736" y="1688" width="200" height="60" as="geometry" />
        </mxCell>
        <mxCell id="7HG6QUX_BdrF7CLEFW-o-10" value="increasedDurationComparedTo" style="shape=rhombus;perimeter=rhombusPerimeter;whiteSpace=wrap;html=1;align=center;" vertex="1" parent="1">
          <mxGeometry x="736" y="1794" width="200" height="60" as="geometry" />
        </mxCell>
        <mxCell id="7HG6QUX_BdrF7CLEFW-o-11" value="increasedRateComparedTo" style="shape=rhombus;perimeter=rhombusPerimeter;whiteSpace=wrap;html=1;align=center;" vertex="1" parent="1">
          <mxGeometry x="736" y="1476" width="200" height="60" as="geometry" />
        </mxCell>
        <mxCell id="7HG6QUX_BdrF7CLEFW-o-12" value="increasedComparedTo" style="shape=rhombus;perimeter=rhombusPerimeter;whiteSpace=wrap;html=1;align=center;" vertex="1" parent="1">
          <mxGeometry x="736" y="1370" width="200" height="60" as="geometry" />
        </mxCell>
        <mxCell id="7HG6QUX_BdrF7CLEFW-o-13" value="decreasedDurationComparedTo" style="shape=rhombus;perimeter=rhombusPerimeter;whiteSpace=wrap;html=1;align=center;" vertex="1" parent="1">
          <mxGeometry x="736" y="2210" width="200" height="60" as="geometry" />
        </mxCell>
        <mxCell id="7HG6QUX_BdrF7CLEFW-o-14" value="&lt;div&gt;differsFrom&lt;/div&gt;" style="shape=rhombus;perimeter=rhombusPerimeter;whiteSpace=wrap;html=1;align=center;" vertex="1" parent="1">
          <mxGeometry x="680" y="1264" width="200" height="60" as="geometry" />
        </mxCell>
        <mxCell id="7HG6QUX_BdrF7CLEFW-o-30" style="edgeStyle=orthogonalEdgeStyle;rounded=0;orthogonalLoop=1;jettySize=auto;html=1;entryX=0;entryY=0.75;entryDx=0;entryDy=0;" edge="1" parent="1" source="7HG6QUX_BdrF7CLEFW-o-15" target="EtgaM84JRcqlryoIpieD-7">
          <mxGeometry relative="1" as="geometry" />
        </mxCell>
        <mxCell id="7HG6QUX_BdrF7CLEFW-o-15" value="" style="rounded=0;whiteSpace=wrap;html=1;fillColor=none;dashed=1;" vertex="1" parent="1">
          <mxGeometry x="610" y="1120" width="440" height="1210" as="geometry" />
        </mxCell>
        <mxCell id="7HG6QUX_BdrF7CLEFW-o-16" value="New Qualifier Relations" style="text;html=1;align=left;verticalAlign=top;whiteSpace=wrap;rounded=0;labelPosition=center;verticalLabelPosition=middle;spacingLeft=4;" vertex="1" parent="1">
          <mxGeometry x="610" y="1120" width="160" height="30" as="geometry" />
        </mxCell>
        <mxCell id="7HG6QUX_BdrF7CLEFW-o-26" value="" style="group;movable=1;resizable=1;rotatable=1;deletable=1;editable=1;locked=0;connectable=1;" vertex="1" connectable="0" parent="1">
          <mxGeometry x="1190" y="1460" width="380" height="350" as="geometry" />
        </mxCell>
        <mxCell id="7HG6QUX_BdrF7CLEFW-o-28" value="APO" style="text;html=1;align=left;verticalAlign=top;whiteSpace=wrap;rounded=0;labelPosition=center;verticalLabelPosition=middle;spacingLeft=4;" vertex="1" parent="7HG6QUX_BdrF7CLEFW-o-26">
          <mxGeometry width="170" height="30" as="geometry" />
        </mxCell>
        <mxCell id="7HG6QUX_BdrF7CLEFW-o-27" value="" style="rounded=0;whiteSpace=wrap;html=1;fillColor=none;dashed=1;movable=0;resizable=0;rotatable=0;deletable=0;editable=0;locked=1;connectable=0;" vertex="1" parent="7HG6QUX_BdrF7CLEFW-o-26">
          <mxGeometry width="380" height="350" as="geometry" />
        </mxCell>
        <mxCell id="7HG6QUX_BdrF7CLEFW-o-32" style="edgeStyle=orthogonalEdgeStyle;rounded=0;orthogonalLoop=1;jettySize=auto;html=1;exitX=0;exitY=0.25;exitDx=0;exitDy=0;entryX=1;entryY=0.488;entryDx=0;entryDy=0;entryPerimeter=0;" edge="1" parent="1" source="EtgaM84JRcqlryoIpieD-7" target="7HG6QUX_BdrF7CLEFW-o-15">
          <mxGeometry relative="1" as="geometry">
            <Array as="points">
              <mxPoint x="1140" y="1510" />
              <mxPoint x="1140" y="1710" />
            </Array>
          </mxGeometry>
        </mxCell>
      </root>
    </mxGraphModel>
  </diagram>
</mxfile>
